<svg xmlns="http://www.w3.org/2000/svg" xmlns:xlink="http://www.w3.org/1999/xlink" width="65" height="9" viewBox="0 0 65 9" fill="none"><g opacity="1" transform="translate(0 0)  rotate(0 32.5 4.5)"><path id="减去顶层" fill-rule="evenodd" style="fill:#FFFFFF" transform="translate(1 1)  rotate(0 30.399999618530273 4)" opacity="1" d="M0 8L60.8 8C59.47 8 58.2 7.72 56.99 7.15C55.78 6.58 54.75 5.79 53.89 4.76L52.02 2.52C51.36 1.72 50.55 1.1 49.61 0.66C48.67 0.22 47.68 0 46.64 0L7 0C6.05 0 5.14 0.18 4.27 0.55Q3.025 1.075 2.05 2.05Q1.075 3.025 0.55 4.27C0.18 5.14 0 6.05 0 7L0 8Z "></path><path id="减去顶层" fill-rule="evenodd" style="fill:#E9E9E9" transform="translate(0 0)  rotate(0 32.5 4.5)" opacity="1" d="M61.8 8L65 8L65 9L61.8 9C60.47 9 59.2 8.72 57.99 8.15C56.78 7.58 55.75 6.79 54.89 5.76L53.02 3.52C52.36 2.72 51.55 2.1 50.61 1.66C49.67 1.22 48.68 1 47.64 1L8 1C7.05 1 6.14 1.18 5.27 1.55Q4.025 2.075 3.05 3.05Q2.075 4.025 1.55 5.27C1.18 6.14 1 7.05 1 8L1 9L0 9L0 8C0 3.58 3.58 0 8 0L47.64 0C50.02 0 52.27 1.05 53.79 2.88L55.66 5.12C57.18 6.94 59.43 8 61.8 8Z "></path></g></svg>